<svg width="132" height="40" viewBox="0 0 132 40" fill="none" xmlns="http://www.w3.org/2000/svg">
  <!-- Green squiggle accent above the R -->
  <path d="M5 5.5C7.8 2.2 12.2 2.5 14.5 5.5C16.8 8.5 20.5 7.8 23 5" stroke="#5EA500" stroke-width="3.2" stroke-linecap="round" fill="none"/>
  <!-- R — Instrument Sans Bold, modified leg -->
  <path d="M3.5 12h10.8c6.2 0 10 3.4 10 8.2 0 3.6-2.1 6.2-5.6 7.3l7.8 10.5h-6.8l-7-9.5H9v9.5H3.5V12zm5.5 4.2v8.2h5.5c3.6 0 5.6-1.9 5.6-4.2 0-2.3-2-4-5.6-4H9z" fill="white"/>
  <!-- e -->
  <path d="M30 24.8c0-6 4.2-10.3 9.5-10.3 5.3 0 9 3.8 9 9.5v1.5H35.3c.5 3.4 2.8 5.2 5.8 5.2 2.2 0 3.8-.8 5-2.4l3.5 2.4c-1.8 2.8-5 4.8-8.8 4.8-6.3 0-10.8-4.3-10.8-10.7zm5.3-2h11.8c-.4-2.8-2.6-4.8-5.6-4.8-3 0-5.4 2-6.2 4.8z" fill="white"/>
  <!-- v -->
  <path d="M52 15h5.8l6.7 15 6.7-15h5.8L68 38h-6.5L52 15z" fill="white"/>
  <!-- u -->
  <path d="M79 15h5.5v13c0 3.2 1.7 4.8 4.3 4.8 2.6 0 4.3-1.6 4.3-4.8V15H98.5v14c0 5.5-3.7 9-9.7 9S79 34.5 79 29V15z" fill="white"/>
  <!-- n -->
  <path d="M103 15h5.5v3.3c1.7-2.3 4.3-3.8 7.5-3.8 5.2 0 7.8 3.3 7.8 8.2V38h-5.5V24c0-3.3-1.7-5-4.5-5-2.8 0-4.8 1.8-5.3 4V38H103V15z" fill="white"/>
</svg>
